  <svg  version="1.1"  width="300" height="200"  viewbox="0 0 300 200" xmlns="http://www.w3.org/2000/svg">
        <symbol id="Card" class="creditCard" viewbox="0 0 300 200">
            <rect x="0" y="0" width="300" height="200" fill="rgb(230, 184, 34)" rx="20" ry="20"/>
            <rect x="0" y="30" width="300" height="35" fill="rgb(151, 133, 98)"/>
            <rect x="30" y="90" width="55" height="10" fill="rgb(235, 220, 190)" rx="6" ry="6"/>
            <rect x="95" y="90" width="55" height="10" fill="rgb(235, 220, 190)" rx="6" ry="6"/>
            <rect x="30" y="110" width="15" height="10" fill="rgb(235, 220, 190)" rx="4" ry="4"/>
            <rect x="55" y="110" width="20" height="10" fill="rgb(235, 220, 190)" rx="4" ry="4"/>
            <rect x="85" y="110" width="15" height="10" fill="rgb(235, 220, 190)" rx="4" ry="4"/>
            <rect x="110" y="110" width="20" height="10" fill="rgb(235, 220, 190)" rx="4" ry="4"/>
            <rect x="140" y="110" width="10" height="10" fill="rgb(235, 220, 190)" rx="4" ry="4"/>
            <circle r="25" cx="222" cy="150" fill="rgb(230, 29, 29)"/>
            <circle r="25" cx="250" cy="150" fill="rgb(17, 91, 202)"/>
        </symbol>
    </svg>